<?xml version="1.0" encoding="utf-8"?>
<!-- Generator: Adobe Illustrator 27.2.0, SVG Export Plug-In . SVG Version: 6.00 Build 0)  -->
<svg version="1.1" id="Layer_1" xmlns="http://www.w3.org/2000/svg" xmlns:xlink="http://www.w3.org/1999/xlink" x="0px" y="0px"
	 viewBox="0 0 1577.2 138.7" style="enable-background:new 0 0 1577.2 138.7;" xml:space="preserve">
<style type="text/css">
	.st0{fill:#FFFFFF;}
</style>
<g>
	<path class="st0" d="M46.9,36.3c-14.1,0-22.1,16-13.7,27.3l36.3,49l37.8-51.2H86L69.4,83.8l-20.7-28h68.5c1.2,4.3,1.9,8.8,1.9,13.5
		c0,27.4-22.2,49.7-49.7,49.7c-27.4,0-49.7-22.2-49.7-49.7c0-27.4,22.2-49.7,49.7-49.7c11.9,0,22.8,4.2,31.3,11.1H127
		C114.6,12.2,93.4,0,69.4,0C31.1,0,0,31.1,0,69.4c0,38.3,31.1,69.4,69.4,69.4c38.3,0,69.4-31.1,69.4-69.4c0-12-3-23.2-8.4-33.1H46.9
		z"/>
	<g>
		<path class="st0" d="M221,37.2c-0.5,3.4-0.8,6.7-2.3,9.6c-0.5,0.4-1.3,0.5-1.9,0.3c-2.1-0.9-0.4-3.7-2.9-4.6
			c-6.5-4.3-14.8-5.1-23.1-4.5c-11.4,1.3-23.6,6.6-28.4,18.3c-3.2,8.1-2.9,17.1-0.3,25c3.9,11.6,15.7,19.5,27.9,19.8
			c5.7,0.3,11-0.5,15.9-2.4l0.2-0.3c-0.1-7.3,0.1-13-0.7-19.4c-0.2-1.2-0.7-2.6-2-3c-3-0.4-6-0.3-9.2-0.3c-0.3-1.1-0.2-2.5-0.1-3.6
			l34.2-0.1l0.2,0.1c0.1,1.4,0.1,2.2,0.1,3.5l-0.2,0.2c-2.4,0.2-5-0.3-7.1,0.4l-0.3,0.4l0.1,16.3c0.1,1.4,0.5,3,1.6,4.2
			c0.2,0.6,0.3,1.2-0.1,1.7c-2.3,1.9-5.3,2.1-8,3c-9,1.9-17.8,3.9-27.6,3.8c-15.9-0.1-32.6-5.7-39.4-21c-4.3-10.6-3.5-24.1,3.8-33.3
			c12.5-14.6,30.2-18.5,49.1-18.1C207.6,33.8,214.7,34.7,221,37.2L221,37.2z"/>
		<path class="st0" d="M496.6,35.5v3.4c0,0-4-0.2-6.9,0.3c-1.4,0.2,8.8,18.9,8.8,18.9c4.8,9.2,9.2,18.6,14.3,27.6l0.2-0.1
			c0,0,20.6-42.9,20.5-45.9c-1.6-1.7-9.8-0.7-9.8-0.7c0-1,0.1-2.3,0-3.5l0.2-0.1c7.9-0.1,16.4,0.1,24.4,0c0.1,1.2,0.1,2.4,0.1,3.6
			c-1.3,0.1-4.2,0.1-6.3,0.1c-1,0.7-1.5,2-2.1,3.1l-18.9,39.1l-11.7,23.7c-0.3,0.5-0.7,1.1-1.4,1.1c-1.2,0.1-1.9-1-2.4-2l-13.1-25.7
			l-9-17.8c-3.5-6.7-6.6-13.6-10.9-19.9c-1.9-2.3-5.1-1.6-7.8-1.9c0.1-1.4,0-2.1,0-3.7l31.6,0.1L496.6,35.5L496.6,35.5z"/>
		<path class="st0" d="M316.9,82.1c-2.4-6-4.9-12-7.6-17.9c-3.3,5.6-5.9,11.7-8.7,17.5v0.4C306,82.2,311.6,82.3,316.9,82.1
			L316.9,82.1z M319.3,52c1.2,1.7-1.8,2-1.6,3.6c2.3,6.9,5.4,13.5,8.2,20.2l8.4,18.5c1.5,2.6,2.7,7.3,6.9,6.7c2.4-0.1,4.8,0.2,7-0.2
			c0.3-0.2,0.5-0.4,0.5-0.7l-0.1-24c-0.3-4.6,0.2-11.1-0.7-15.6c-0.7-1.8-1.8-3.7-3.8-4.3c-1.3-0.3-2.8-0.3-4.2-0.3v-2.6
			c5.7-0.3,10.8,0.1,16.6,0l21.8,20.4l16.3,15.1l0.3-0.3l-0.2-22.8c-0.3-2.7-0.3-6-1.2-8.7c-0.5-1.5-4.2-1.1-7.1-1.1v-2.7l18.1,0
			c0.1,0.8,0,2.7,0,2.7c-1.8-0.1-3.8-0.4-5.3,0.3c-0.8,0.3-0.1,47.4-0.1,47.4c-0.1,0.4-0.3,0.7-0.8,0.8c-0.7,0.2-1.1-0.3-1.6-0.5
			l-5.4-5.1L368,77.2c-4.7-4.2-9.8-9.5-15-13.9v28.5l0.7,6.9c0.2,0.8,0.5,1.5,1.3,2c1.8,0.6,4.1,0.2,6.1,0.4c0.2,0.8,0.2,1.8,0,2.6
			h-41.8l-0.3-0.2c-0.1-0.7-0.1-1.7,0-2.5c1.8-0.3,4,0.1,5.7-0.4c0.3-0.3,0.3-0.7,0.2-0.9c-1.8-4.7-4-9.3-5.9-14l-0.3-0.2l-20,0.1
			c-2,4.6-4.5,8.9-5.3,14c0.1,0.4,0.4,0.8,0.8,1c2.4,0.6,4.7,0.3,7.2,0.3c0.2,0.8,0.1,1.8,0.1,2.6c-6.3,0.3-12.7,0-19.4,0
			c-0.4-0.9,0-1.7-0.1-2.5c2-0.5,5.3,0.7,5.8-2.3l11.7-23.3l11.4-22.4c2.2-0.9,4.8-0.9,7.3-1.4C318.5,51.7,318.9,51.6,319.3,52
			L319.3,52z"/>
		<path class="st0" d="M549.8,82.5c-2.3-6-4.8-11.9-7.4-17.9c-3.3,6-6.3,11.9-8.8,17.9C539.2,82.6,544.1,82.7,549.8,82.5L549.8,82.5
			z M552.4,52.3c0.3,0.3,0.4,0.9,0.1,1.3c-0.5,0.6-1.6,1.2-1.6,2.1c0.8,4.3,3,8.1,4.5,12.1l3.5,8.2l8.8,19.5
			c1.3,2.3,2.4,6.2,5.9,5.8c2.5,0,5.4,0.3,7.7-0.3c0.6-0.4,0.4-1.4,0.4-1.9l-0.1-34.6c0.1-2.4-0.3-4.7-0.7-6.9
			c-0.6-1.9-5.9-1.2-7.2-1.4v-2.5l24.6-0.1c0,1.5,0,2.6,0,2.6s-3.8-0.3-5.1,0.4l-0.3,0.8l0.2,36.1c0.6,2.4-0.2,5.3,1.7,7l1.3,0.2
			c7.4,0.1,15,0.3,21.5-2c1.4-0.6,3-1.4,3.8-3c0.5-0.2,1.2-0.4,1.8-0.2c0.8,0.8-0.1,1.7-0.1,2.6c-0.7,2-1.3,4-2.2,5.8l-69-0.1
			l-0.2-2.6c2.1-0.3,4.2,0.1,5.8-0.5l0.1-0.6c-1.8-4.8-3.9-9.6-5.9-14.2l-0.4-0.3h-19.6c-2,3.8-3.8,7.8-5.1,11.9
			c-0.1,1-0.8,2.5,0.4,3.1c2.2,0.7,4.8,0.4,7.3,0.4c0,1.2,0,1.7,0,2.5L515,104v-2.6c2-0.4,4.9,0.6,5.7-2.1l10.5-20.9l12.6-24.9
			c2.3-0.7,4.8-1,7.2-1.4C551.5,52,552,52,552.4,52.3L552.4,52.3z"/>
		<path class="st0" d="M258.7,62.8c-3.2-5.3-16.3-6.1-16.4-5.6l0.3,20.7c6.2,0.2,12.7,0.1,16.4-5.2
			C260.7,69.7,260.2,65.8,258.7,62.8L258.7,62.8z M251.9,53.1c7.3,0.4,14.7,2.4,18.5,9.2c1.8,3.7,1.2,8.6-1.4,11.8
			c-2.9,3.6-6.9,4.2-10.9,5.3c5.6,7,10.8,14.1,17.8,20.2c1.4,1.1,3.2,1.1,4.9,1.3c-0.1,0.9-0.1,1.9-0.1,2.7l-13.6-0.1L265,103
			c-5.3-5.1-9.2-11.2-13.3-16.9l-3.6-5.3h-5.4c0,0-0.2,10.1,0.1,16.1c0.3,1.4,0.2,3.3,1.8,3.8c1.7,0.3,4.1,0.1,6,0.2
			c0.3,0.7,0,2.7,0,2.7h-25c-0.3-0.7-0.2-1.9-0.2-2.6c1.7-0.2,4,0.2,5.3-0.4l0.3-0.9c0.1-2.3-0.2-33.1-0.2-33.1
			c-0.3-3,0.1-6.5-0.8-9.3c-1.1-2-3.6-1.3-5.7-1.4H223c-0.1-0.8,0.1-1.7,0-2.7L251.9,53.1L251.9,53.1z"/>
		<path class="st0" d="M449.4,65.4c-5.5-6.7-13.5-8.9-22.1-8.8c-0.9,0.3-2.6-0.4-2.8,0.9l0.2,34.2c0.1,2.6,0.3,5.2,0.9,7.6
			c0.4,0.6,0.9,1,1.7,1c7,0.1,13.5-1,19.1-4.5c5.3-3.2,7.9-8.7,8.2-14.5C454.7,75.4,452.9,69.9,449.4,65.4L449.4,65.4z M443,54
			c8.7,1.2,17.6,5.8,21.8,14.4c2.3,5.5,2.6,12.3,0.4,18c-2.4,7-9.7,13.5-16.7,15.4c-5.9,2-12.6,2.3-19.5,2.1l-21.3-0.1
			c0.1-0.8,0.1-2.5,0.1-2.5c1.9-0.1,4.8,0.8,5.5-1.4L413.2,67c-0.3-3.3,0.3-6.5-0.8-9.6c-0.5-1.6-2.4-1.2-3.7-1.4h-3.5
			c0-1.3,0-1.3,0-2.6l29.5-0.1L443,54L443,54z"/>
		<path class="st0" d="M646.5,53.7c0,1.1,0.1,1.7,0.1,2.7c-1.9,0-3.6-0.2-5.2,0.4l-0.3,0.5l0.1,31.6c0,3.5,0.3,6.9,0.7,10.1
			c0.2,0.7,0.7,1.4,1.3,1.8l0.9,0.2c6.5,0,13.2,0.1,19.4-1.2c2.3-0.8,4.8-1.4,6.3-3.7c0.6-0.4,1.2-0.5,1.8-0.2
			c0.7,1.2-0.3,2.4-0.4,3.6l-1.6,4.6l-0.3,0.2l-44.6-0.1c0-0.8,0-1.7,0-2.7c1.7-0.2,3.7,0.2,5.2-0.4c0.7-0.8,0.2-1.9,0.4-2.6
			l-0.1-31.2c-0.4-3.4,0.3-7.1-1.1-10.1c-1.1-1-2.7-0.7-4.1-0.8c-0.9-0.3-2.5,0.2-2.5-0.2c0-0.7,0.1-1.8,0.1-2.6L646.5,53.7
			L646.5,53.7z"/>
		<path class="st0" d="M712.5,53.9l4.5,0.1c-0.2,2.4-0.7,4.8-1,7.2c-0.2,0.3-0.4,0.9-0.9,1c-0.7,0.1-1.3-0.1-1.5-0.7
			c-0.2-0.7-0.3-1.4-0.9-1.9c-5.7-2.6-12.6-2.4-19.3-2.5c-1.3,0.2-3.1-0.4-4,0.7l0.1,17.6l0.4,0.2c5.8-0.1,11.9,0.4,17.4-0.7
			c1.6-0.5,1-2.4,1.2-3.6c0.1-0.6-0.2-1,0.3-1.7c0.9,0.1,1.8-0.1,2.8-0.1v14c-1.1,0.1-3,0-3,0c-0.1-0.9,0.1-2.6-0.5-3.7
			c-1.4-0.9-3.2-0.8-4.8-1.1c-4.6-0.1-9.1-0.2-13.7-0.2l-0.3,0.3c0.2,6.8-0.3,14.1,0.7,20.3c0.3,0.8,0.5,1.5,1.3,1.8
			c3.3,0.4,6.9,0.2,10.2,0.2c5.1-0.4,10.3-0.5,14.6-3c1.2-0.8,1.8-2.9,3.5-2.2c0.8,0.9,0.1,2.1-0.1,3.1l-2,5.3l-0.9,0.1l-44.1-0.2
			l-0.1-2.6c1.7-0.4,3.7,0.2,5.3-0.5l0.3-0.7L678,66.6c-0.3-2.4,0.1-6.1-0.8-8.8c-0.3-0.4-0.7-0.9-1.2-1.1c-1.8-0.4-4-0.1-5.9-0.2
			c-0.3-0.8-0.2-1.8-0.1-2.6l0.4-0.2l6.9,0.1L712.5,53.9L712.5,53.9z"/>
		<path class="st0" d="M742,53.9l0,2.7c-2-0.1-3.7-0.1-5.4,0.3c0.3,1.9,1.3,2.7,2,4l10.8,16.4l1,1.3l0.3-0.2
			c4.2-6.4,8.5-12.8,11.6-19.7c0.2-0.4,0.3-1,0.2-1.4l-0.5-0.4l-6.2-0.3c0-1.1,0-2.7,0-2.7l17.7,0.2c0.1,1.1,0.1,1.8,0.1,2.6
			c-2-0.1-4.6-0.4-5.7,1.9l-14.2,21.9l-1.4,2.1l0.1,14.2c0.6,1.4-0.1,4.2,1.9,4.8c1.8,0.4,4.1,0.1,6,0.3c0.1,1,0,1.8,0,2.7
			l-24.8-0.1c0-0.6-0.1-2.5-0.1-2.5c2-0.2,5.6,1.1,5.7-1.8L740.7,83c-5.4-7.7-10.3-15.7-15.8-23.5c-0.9-1-1.8-2.3-3-2.8l-4.5-0.2
			c0-1-0.1-2.7-0.1-2.7L742,53.9L742,53.9z"/>
		<path class="st0" d="M835.8,34.2c0.1,3.2,1,6.5,0.4,9.7c-0.8,0.4-1.8,0.8-2.6,0.3c-1.2-1.6-1.5-3.9-3.7-4.9
			c-3.7-1.9-7.8-2.8-12.4-2.7c-6.5,0.3-13.6,2.1-16.3,8.7c-0.6,2.8-0.2,6.1,2,8.3c3.6,3.9,8.5,4.7,12.8,6.5
			c10,3.7,24.4,5.4,26.9,18.6c1.4,7.4-2.3,13.9-8.1,18.6c-12.4,9.1-31.4,7.4-45.6,3.5c-1-3.3-1.7-6.8-2.3-10.3
			c0.1-0.6,0.2-1.4,1-1.6c1-0.1,2.5-0.3,2.9,1c2.7,6.4,9.7,7.9,15.8,9c5.6,1,11.2,0,16.1-1.7c4.4-1.9,8.8-6.1,8.6-11.3
			c0.1-4.5-3.6-8.5-7.8-10.1c-10.1-5-22.4-5-30.9-13.8c-3.5-4.2-4.4-10.5-2.7-15.7c2.7-7.6,11.1-10.9,17.9-13.1
			C816.5,31.3,827.3,31.6,835.8,34.2L835.8,34.2z"/>
		<path class="st0" d="M1079.5,36.8c0.3,1,0.3,2.5,0.1,3.6c-2.3,0.4-4.8-0.3-7.1,0.6l-0.4,0.8v38.4c0.3,6.9,1.7,14,7.8,18.2
			c5.7,3.7,13.6,4.1,20.6,2.8c5.9-1.4,12.5-4.2,15.2-10.5c1.4-2.5,2-5.6,2.4-8.5l-0.1-29.3c-0.5-3.4-0.2-7.4-1.4-10.8
			c-0.6-1.2-1.8-1.3-2.9-1.4l-6.4-0.1c-0.2-1.1-0.2-2.5,0-3.6l23.9,0.1c0.3,1,0.1,2.3,0.2,3.4l-0.3,0.3c-2.3,0.3-4.8-0.3-7,0.5
			l-0.3,0.5l-0.1,41.5c-0.8,7.2-4.6,13.8-11.2,18l-4.8,2.7c-8.2,3.2-17.8,3.9-27.1,2.6c-9-1.4-19.1-5.2-22.4-14.8
			c-1.2-3.1-1.2-6.4-1.4-10l-0.1-30.1c-0.1-3.2-0.1-6.8-1.4-9.9l-1.1-0.8c-2.5-0.4-5.2-0.1-7.8-0.2l-0.3-0.3v-3.3l0.3-0.1
			L1079.5,36.8L1079.5,36.8z"/>
		<path class="st0" d="M906.3,64.7c-3.4,5.4-6.1,11.2-9,17v0.4c5.2,0.1,10.9,0.2,16.2-0.1C911.2,76.2,908.9,70.4,906.3,64.7
			L906.3,64.7z M916.4,52.8c0.5,1.6-2.5,1.9-1.7,3.6l2.1,5.9l14,31.9c1.2,2.4,2.2,5.4,4.8,6.6l4,0.3c0,0.7,0,1.8,0.1,2.6
			c-8,0.1-16.5,0.1-24,0.1c0.1-0.9,0-1.8,0.1-2.8c1.9-0.1,3.7,0.1,5.4-0.6l-0.1-1.4l-5.6-13.2l-0.4-0.3h-19.6l-0.6,0.7
			c-1.9,4.3-4.3,8.5-5,13.4c0.3,1.6,2.1,1.1,3.2,1.3l4.8,0.1c0,0.8,0,1.7,0.1,2.6c-6.5,0.1-13,0.1-19.4,0.1c0-1-0.1-1.9-0.1-2.7
			c1.9-0.4,4.5,0.7,5.5-1.6l10.1-20.2L906,56.7l1.7-3.3c2.3-0.7,5-0.9,7.4-1.4C915.6,52.1,916.3,52.1,916.4,52.8L916.4,52.8z"/>
		<path class="st0" d="M1430.3,54.5c0.5,2.1,0.5,4.3,0.7,6.5c-0.2,0.5-0.4,1.2-1.1,1.2c-2.5,0.2-1.7-3-3.9-3.6c-5-3-12.4-2.8-17.3,0
			c-2.1,1.4-3.9,3.6-3.7,6.3c0.7,6.2,7.8,7.1,12.4,9c7.2,2.3,16.7,4.8,18.2,13.6c1.1,6.1-2.4,11.3-7.3,14.7c-9,5.6-22.1,4.3-32,1.7
			c-1-2.5-1.2-5.2-1.9-7.9c0-0.6,0.4-1,1-1.2c2.1-0.8,2.1,1.9,3.1,2.8c5,4.7,12.5,5.6,19.3,4.3c3.6-0.9,8.1-3.4,9-7.5
			c0.4-2.1,0-4.3-1.2-6c-2.6-3.1-6.3-3.9-9.7-5.3c-7.2-2.8-17.7-4-19.6-13.2c-0.9-4.3,0.6-8.7,4.1-11.6
			C1408.5,52.3,1420.5,51.8,1430.3,54.5L1430.3,54.5z"/>
		<path class="st0" d="M870.1,53.4c4.8,0.1,9.8-0.2,14.4,0.3l3.1,7.7c-0.1,0.4-0.5,1-1,1c-2.3,0.3-2.5-2.7-4.3-3.2
			c-5-2.1-10.7-2.5-16.5-2.3l-0.2,0.2l0.1,39.2c0.6,1.6,0.1,3.9,2.1,4.5c2.5,0.3,5.2,0.2,7.8,0.2c0.1,0.9,0,1.9,0.1,2.8l-29.9,0
			c0-0.9,0-1.9,0.1-2.8c2.9-0.2,5.5,0.2,8.1-0.4l0.3-0.6V57.4l-0.2-0.5c-5.3-0.2-11.3,0.1-16.2,1.9c-2.3,0.5-2.6,4.4-5.4,3.3
			c-0.6-0.5-0.4-1.3-0.1-1.9l2.5-6.5c1.2-0.3,2.7,0.1,3.9-0.3L870.1,53.4L870.1,53.4z"/>
		<path class="st0" d="M981.1,53.8c1.1,2.5,2.2,5.2,3,7.8c-0.1,0.6-0.6,0.8-1.2,0.9c-1.9,0.2-1.9-2.1-3.4-2.8
			c-2.3-1.6-5.1-1.8-7.8-2.3c-3.1-0.6-6.1-0.3-9.2-0.5l-0.3,0.2l0.1,39.8c0.6,1.2,0.1,3,1.5,3.9c2.6,0.3,5.5,0.3,8.2,0.3
			c0,1.2-0.1,1.7,0,2.7l-29.6,0l-0.1-2.6c2.8-0.2,5.6,0.1,8.2-0.5l0.4-1.2l-0.1-42.1c-0.1-0.5-0.6-0.5-1-0.5
			c-5.8,0.1-11.6,0.3-16.5,2.8c-1.6,1-2,3.6-4.2,2.6c-0.6-0.6-0.2-1.4,0-2l2.4-6.3c0.9-0.6,2.3-0.2,3.4-0.4l43.1,0.1L981.1,53.8
			L981.1,53.8z"/>
		<path class="st0" d="M1032.9,53.8c-0.2,2.5-0.5,4.8-1,7.2c-0.3,0.4-0.4,1-1.1,1c-0.6-0.1-1.3-0.1-1.4-0.8c-0.1-2.3-2.9-2.2-4.4-3
			c-6.4-1-12.3-1.5-19.1-1l-0.5,1l0.1,16.7l0.4,0.3c6-0.2,12.3,0.6,17.8-1c1.2-1.1,0.6-3.1,0.9-4.5c-0.1-0.3,0.3-0.3,0.5-0.3
			l2.5,0.1c0.4,5.1-0.1,8.9,0.1,13.6c-0.9,0.3-2,0.1-3,0.1c-0.6-1.3,0.6-4-1.7-4.3c-5.5-0.7-11.4-0.7-17.3-0.6l-0.2,0.3
			c-0.1,6.1-0.4,14,0.6,20.4c0.2,0.6,0.6,1.3,1.2,1.7c8.4,0.3,17.4,0.8,24.5-2.5c1.2-0.8,2.1-3,3.7-2.3c0.8,1-0.1,2-0.1,3l-1.8,5.2
			l-0.3,0.2l-44.7-0.1c0-1,0-1.9-0.1-2.7c2.1-0.3,4.5,0.7,5.5-1l0.1-6.7V67.1c-0.2-3.3,0.3-7-1-9.8l-0.8-0.6c-1.9-0.3-4-0.1-6-0.3
			c-0.1-0.8-0.2-2,0.2-2.7l41.2,0.1L1032.9,53.8L1032.9,53.8z"/>
		<path class="st0" d="M1143.8,54.1l19.6,18.4l17.8,16.7l0.3-0.4c0.3-8.1-0.1-17.1-0.3-24c-0.5-2.5,0.1-5.4-1.4-7.4
			c-1.9-0.8-4.3-0.5-6.3-0.7c-0.3-0.8-0.5-2.1,0.1-2.7c6-0.3,11.3,0.1,17.4,0c0.6,0.6,0.3,1.8,0.2,2.6c-1.6,0.3-3.3,0.1-5,0.4
			l-0.5,0.5l-0.1,47c-0.3,0.5-0.9,0.6-1.4,0.4l-1.2-0.7l-26.3-24.8l-16.5-15.3h-0.2c-0.2,14.2-0.6,21.7,0.6,35
			c0.3,0.8,0.6,1.5,1.4,2c1.7,0.4,3.8,0.1,5.8,0.2c0,1.1,0,1.8,0.1,2.8c-6.3,0.1-11.8,0-17.8,0c0-1.1,0.1-1.8,0.1-2.8
			c2.1,0,3.5,0.2,5.1-0.4l0.3-0.8l-0.2-36.2c0-2.5-1-4.8-3-6.4c-1.5-0.8-3.3-0.8-5.2-0.9c-0.4-0.6-0.3-1.8-0.2-2.5l0.6-0.3
			C1133.4,53.8,1138.1,53.9,1143.8,54.1L1143.8,54.1z"/>
		<path class="st0" d="M1216.7,54.1c0.4,0.6,0.3,1.8,0.2,2.6c-1.8,0.7-4.7-0.8-5.6,1.2l0.1,35.8c0.1,2.3,0.2,4.6,0.8,6.7
			c1.2,1.7,6.5,1,7,1.4c0.1,0.9,0,1.8,0,2.6l-24.5-0.1c-0.1-0.7,0-1.8,0.1-2.8c1.6-0.2,4.1,0.4,5.2-0.8l0.1-3l-0.1-33.7
			c-0.1-2.3-0.2-4.7-1.2-6.5c-1.8-1.2-4.3-0.6-6.5-0.8c-0.3-0.8-0.1-1.7-0.1-2.5l0.3-0.1L1216.7,54.1L1216.7,54.1z"/>
		<path class="st0" d="M1242.6,54.2c0.2,0.7,0.3,2.1-0.2,2.7c-1.6,0.1-3.3-0.2-4.7,0.2c-0.4,0.2-0.3,0.8-0.1,1.1l16.8,32.2l0.3,0.2
			l0.5-0.6l12.3-24.9c1-2.3,2-4.6,2.3-7.2c0-0.5-0.6-0.8-1-0.9c-1.9-0.3-4,0-6-0.2c-0.3-0.8-0.4-2.1,0.1-2.8l17.8,0.1
			c0.6,1,0,1.5,0.1,2.5c-1.5,0.4-3.4-0.1-4.9,0.6l-2.2,4.1l-21.8,44.2c-0.4,0.5-1.2,0.8-1.8,0.4l-0.9-1.2l-20.5-40.3
			c-2-2.8-3-7.9-7.6-7.6c-0.8-0.1-2.3,0.3-2.1-0.8c0.1-0.7-0.3-1.7,0.3-2.1C1226.9,54.2,1234.9,54.1,1242.6,54.2L1242.6,54.2z"/>
		<path class="st0" d="M1331,54.4c-0.1,2.5-0.7,5-1.2,7.5c-0.3,0.8-1.2,0.6-1.7,0.4c-1-0.7-0.8-2.5-2.3-2.8
			c-6.5-2.3-14.3-2-21.5-1.9c-0.5,0-0.5,0.5-0.7,0.8l0.1,16.7l0.4,0.3c5.9-0.2,12,0.4,17.3-0.8c1.7-1,1-3.2,1.2-4.9
			c1-0.2,2.3-0.3,3.1,0.1v13.4c-0.9,0.3-2.1,0.1-3,0.1c-0.6-1,0.5-3.2-1-4c-4.3-1.3-9.6-0.5-14-1l-3.9,0.1l-0.3,0.6
			c0.3,5.2-0.3,13.4,0.8,20.2c0.5,2.2,3,1.4,4.6,1.7c6.6-0.1,13.2,0.1,19-2c2.3-0.3,3.1-3.6,5.6-3.1c0.7,0.9,0.1,2-0.1,3l-1.9,5.4
			l-0.8,0.1l-44-0.1c-0.1-1,0-1.8,0-2.7c1.9-0.4,5.2,1,5.6-1.7l-0.2-38.6c-0.6-1.4-0.1-3.6-1.8-4.3c-1.9-0.6-3.8-0.1-5.8-0.3
			c-0.4-0.8-0.2-1.9-0.1-2.7l0.7-0.1L1331,54.4L1331,54.4z"/>
		<path class="st0" d="M1369.7,64.1c-3.2-5.2-9-6.7-15.1-6.3c-0.3,0.1-0.6,0.1-0.8,0.5c-0.1,7.3-0.2,13.6,0.1,20.4
			c5.8,0,12.1,0.4,15.8-4.5C1371.5,71.3,1371,67.1,1369.7,64.1L1369.7,64.1z M1368.3,55c6,1.2,12.5,4.7,13.9,11.3
			c0.8,4.3-1.2,8.4-4.5,10.9c-2.5,1.7-5.6,2.3-8.4,3.2l0.3,0.8c5,6,9.4,12.7,15.1,18c1.8,1.8,4,3,6.7,2.9c0.4,0.8,0.2,1.9,0.1,2.6
			c-4.5,0.3-9.3,0.2-13.8,0.1c-2.5-0.2-4.2-3.1-5.9-4.8c-4.6-5.7-8.3-12-12.7-18.1c-1.7-0.1-3.6-0.2-5.2,0.1
			c-0.3,5-0.1,10.2-0.1,15.2c0.3,1.6,0.1,3.8,1.8,4.5c1.9,0.3,4,0.1,5.9,0.3c0,1.3,0,1.7,0.1,2.7l-24.7,0c0-0.7-0.1-1.9-0.1-2.7
			c1.5-0.4,3.7,0.1,5.2-0.6l0.3-1.7l-0.1-36.8c-0.5-1.4,0.2-4.5-1.9-5.5c-1.7-0.5-3.9-0.1-5.7-0.3c-0.4-0.7-0.2-1.8-0.1-2.5l0.6-0.3
			C1346,54.8,1357.5,53.6,1368.3,55L1368.3,55z"/>
		<path class="st0" d="M1460,54.6c0.3,0.8,0.1,1.7,0.1,2.5c-1.7,0.8-4.7-0.7-5.6,1.4l0.1,35.4c0,2.2,0.1,5.3,1.2,7.6
			c1.9,1,4.4,0.5,6.6,0.7l0.1,2.6l-0.3,0.1l-24.4-0.1c0-1-0.1-1.7-0.1-2.8c1.8-0.4,4.3,0.6,5.4-0.9l0.2-3.9l-0.2-30.3
			c-0.1-2.8,0-5.8-0.7-8.3c-1.6-2.1-4.7-1.1-7-1.4c-0.1-0.9-0.2-1.9,0.1-2.8L1460,54.6L1460,54.6z"/>
		<path class="st0" d="M1513.6,54.8l0.2,0.1c1,2.4,2.2,5,3,7.5c0,0.4-0.3,1-0.8,1.1c-2.1,0.4-2.2-1.7-3.6-2.5
			c-2.1-1.7-4.8-1.9-7.4-2.4c-3.2-0.4-6.6-0.6-9.9-0.5l-0.1,0.2l0.1,39c0.6,1.4-0.1,4,1.9,4.7c2.5,0.3,5.3-0.1,7.8,0.3
			c0,0.9,0,1.8,0,2.6l-29.5-0.1c-0.3-0.8-0.1-1.9-0.1-2.8c2.6-0.2,5.5,0.2,8.1-0.3c0.6-1.1,0.4-2.3,0.5-3.5l-0.3-40.1l-0.2-0.3
			c-5.7,0-11.2,0.1-16,2.1c-2.3,0.6-3,5-5.4,2.8c0.3-2.9,1.7-5.3,2.6-8c1-0.5,2.4-0.1,3.6-0.3l26.3,0.1L1513.6,54.8L1513.6,54.8z"/>
		<path class="st0" d="M1542.2,54.9c0.1,0.8,0.3,2-0.1,2.7l-5.1,0.2c-0.5,0.5,0.3,1,0.3,1.4c4.3,6.6,8.8,13.2,13.4,19.8h0.3
			c4.2-6.2,8.3-12.5,11.6-19.1c0.1-0.6,0.6-1.5-0.1-2c-2-0.5-4.3-0.1-6.4-0.3c-0.3-0.7-0.1-1.7-0.1-2.5l0.4-0.2
			c6.2-0.1,11.4,0.1,17.5,0.1c0.1,0.9,0.3,2-0.1,2.8c-1.5-0.1-3,0.1-4.3,0.5l-2.3,3L1552.5,83l0.1,14.5c0.5,1.6,0.1,4,2,4.7
			c1.8,0.3,3.7,0.1,5.6,0.2c-0.1,1.3,0.1,1.8,0,2.7l-24.5,0c0-0.9-0.1-1.7-0.1-2.7c1.7-0.3,3.6,0.2,5.2-0.4l0.3-0.8l-0.1-17.6
			l-15.6-22.9c-1-1-1.9-2.5-3.3-3c-1.3-0.2-2.8,0-4.2-0.2c-0.2-1-0.2-1.7-0.1-2.5l0.4-0.3L1542.2,54.9L1542.2,54.9z"/>
		<g>
			<path class="st0" d="M1570.6,115.1c-3.6,0-6.6-2.9-6.6-6.6c0-3.7,2.9-6.6,6.6-6.6c3.6,0,6.6,2.9,6.6,6.6
				C1577.2,112.2,1574.3,115.1,1570.6,115.1z M1570.6,103c-3,0-5.5,2.5-5.5,5.5c0,3,2.5,5.5,5.5,5.5c3,0,5.5-2.5,5.5-5.5
				C1576.1,105.5,1573.7,103,1570.6,103z M1567.7,105.1h3.1c1.8,0,2.3,1.1,2.3,1.9c0,1.1-0.8,2-2,2v0c0.6,0.2,1.1,0.8,1.6,1.8
				l0.9,1.4h-1.4l-0.6-1.1c-0.9-1.6-1.2-1.9-2.1-1.9h-0.7v3h-1.1V105.1z M1570.5,108.2c0.9,0,1.5-0.3,1.5-1.1c0-0.6-0.5-1.1-1.3-1.1
				h-1.8v2.1H1570.5z"/>
		</g>
	</g>
</g>
</svg>
