<?xml version="1.0" encoding="utf-8"?>
<!-- Generator: Adobe Illustrator 27.2.0, SVG Export Plug-In . SVG Version: 6.00 Build 0)  -->
<svg version="1.1" id="Layer_1" xmlns="http://www.w3.org/2000/svg" xmlns:xlink="http://www.w3.org/1999/xlink" x="0px" y="0px"
	 viewBox="0 0 475.8 140.5" style="enable-background:new 0 0 475.8 140.5;" xml:space="preserve">
<style type="text/css">
	.st0{fill:#00369C;}
	.st1{fill:#212120;}
	.st2{fill-rule:evenodd;clip-rule:evenodd;fill:#212120;}
</style>
<g>
	<path class="st0" d="M46.9,36.3c-14.1,0-22.1,16-13.7,27.3l36.3,49l37.8-51.2H86L69.4,83.8l-20.7-28h68.5c1.2,4.3,1.9,8.8,1.9,13.5
		c0,27.4-22.2,49.7-49.7,49.7c-27.4,0-49.7-22.2-49.7-49.7c0-27.4,22.2-49.7,49.7-49.7c11.9,0,22.8,4.2,31.3,11.1H127
		C114.6,12.2,93.4,0,69.4,0C31.1,0,0,31.1,0,69.4c0,38.3,31.1,69.4,69.4,69.4c38.3,0,69.4-31.1,69.4-69.4c0-12-3-23.2-8.4-33.1H46.9
		z"/>
	<g>
		<path class="st1" d="M182.5,34.2c-0.3,1.8-0.4,3.5-1.2,5.1c-0.3,0.2-0.7,0.3-1,0.1c-1.1-0.5-0.2-2-1.5-2.4
			c-3.5-2.3-7.8-2.7-12.2-2.3c-6,0.7-12.4,3.5-15,9.6c-1.7,4.3-1.5,9-0.1,13.2c2.1,6.1,8.3,10.3,14.7,10.4c3,0.1,5.8-0.3,8.4-1.2
			l0.1-0.2c-0.1-3.8,0.1-6.9-0.3-10.2c-0.1-0.6-0.3-1.4-1.1-1.6c-1.6-0.2-3.2-0.2-4.9-0.2c-0.2-0.6-0.1-1.3-0.1-1.9l18.1,0l0.1,0.1
			c0.1,0.8,0,1.2,0,1.8l-0.1,0.1c-1.3,0.1-2.6-0.2-3.8,0.2l-0.2,0.2l0.1,8.6c0.1,0.8,0.3,1.6,0.8,2.2c0.1,0.3,0.1,0.6,0,0.9
			c-1.2,1-2.8,1.1-4.2,1.6c-4.7,1-9.4,2.1-14.6,2c-8.4-0.1-17.2-3-20.8-11.1c-2.3-5.6-1.8-12.7,2-17.5c6.6-7.7,15.9-9.7,25.9-9.5
			C175.4,32.4,179.1,32.9,182.5,34.2L182.5,34.2z"/>
		<path class="st1" d="M327.9,33.3v1.8c0,0-2.1-0.1-3.7,0.1c-0.7,0.1,4.6,9.9,4.6,9.9c2.5,4.9,4.8,9.8,7.5,14.6l0.1,0
			c0,0,10.9-22.6,10.8-24.2c-0.9-0.9-5.2-0.4-5.2-0.4c0-0.5,0-1.2,0-1.9l0.1-0.1c4.2-0.1,8.6,0,12.9,0c0.1,0.6,0,1.2,0,1.9
			c-0.7,0-2.2,0-3.3,0.1c-0.6,0.4-0.8,1.1-1.1,1.6l-10,20.6L334.6,70c-0.2,0.3-0.4,0.6-0.7,0.6c-0.6,0.1-1-0.6-1.2-1L325.7,56
			l-4.8-9.4c-1.8-3.5-3.5-7.2-5.8-10.5c-1-1.2-2.7-0.8-4.1-1c0.1-0.7,0-1.1,0-1.9l16.7,0L327.9,33.3L327.9,33.3z"/>
		<path class="st1" d="M233.1,57.9c-1.2-3.2-2.6-6.3-4-9.5c-1.7,3-3.1,6.1-4.6,9.2v0.2C227.3,58,230.2,58,233.1,57.9L233.1,57.9z
			 M234.3,42c0.6,0.9-0.9,1-0.8,1.9c1.2,3.7,2.8,7.1,4.3,10.7l4.4,9.8c0.8,1.4,1.4,3.9,3.7,3.5c1.2,0,2.5,0.1,3.7-0.1
			c0.1-0.1,0.3-0.2,0.3-0.3l0-12.6c-0.1-2.4,0.1-5.9-0.3-8.2c-0.3-1-0.9-2-2-2.3c-0.7-0.2-1.5-0.1-2.2-0.2v-1.4c3-0.1,5.7,0.1,8.8,0
			l11.5,10.8l8.6,8l0.1-0.2l-0.1-12c-0.2-1.4-0.2-3.2-0.6-4.6c-0.3-0.8-2.2-0.6-3.7-0.6v-1.4l9.6,0c0.1,0.4,0,1.4,0,1.4
			c-1-0.1-2-0.2-2.8,0.2c-0.4,0.2-0.1,25-0.1,25c-0.1,0.2-0.2,0.4-0.4,0.4c-0.3,0.1-0.6-0.2-0.9-0.3l-2.9-2.7L260,55.3
			c-2.5-2.2-5.2-5-7.9-7.3v15l0.4,3.7c0.1,0.4,0.3,0.8,0.7,1c1,0.3,2.2,0.1,3.2,0.2c0.1,0.4,0.1,1,0,1.4h-22l-0.2-0.1
			c-0.1-0.4-0.1-0.9,0-1.3c1-0.2,2.1,0.1,3-0.2c0.1-0.1,0.2-0.3,0.1-0.5c-1-2.5-2.1-4.9-3.1-7.4l-0.2-0.1l-10.5,0
			c-1.1,2.4-2.4,4.7-2.8,7.4c0,0.2,0.2,0.4,0.4,0.6c1.2,0.3,2.5,0.1,3.8,0.2c0.1,0.4,0.1,1,0,1.4c-3.3,0.2-6.7,0-10.2,0
			c-0.2-0.5,0-0.9,0-1.3c1.1-0.3,2.8,0.3,3.1-1.2l6.1-12.3l6-11.8c1.2-0.5,2.6-0.5,3.8-0.8C233.9,41.8,234.1,41.8,234.3,42L234.3,42
			z"/>
		<path class="st1" d="M355.9,58.1c-1.2-3.2-2.6-6.3-3.9-9.4c-1.7,3.2-3.3,6.3-4.7,9.4C350.3,58.1,352.9,58.2,355.9,58.1L355.9,58.1
			z M357.3,42.2c0.1,0.2,0.2,0.5,0,0.7c-0.3,0.3-0.9,0.6-0.9,1.1c0.4,2.3,1.6,4.3,2.4,6.4l1.9,4.3l4.6,10.3c0.7,1.2,1.3,3.3,3.1,3
			c1.3,0,2.8,0.2,4.1-0.1c0.3-0.2,0.2-0.7,0.2-1l0-18.2c0-1.3-0.1-2.5-0.4-3.7c-0.3-1-3.1-0.7-3.8-0.7v-1.3l13-0.1
			c0,0.8,0,1.4,0,1.4s-2-0.1-2.7,0.2l-0.1,0.4l0.1,19c0.3,1.2-0.1,2.8,0.9,3.7l0.7,0.1c3.9,0,7.9,0.1,11.3-1c0.8-0.3,1.6-0.8,2-1.6
			c0.3-0.1,0.6-0.2,0.9-0.1c0.4,0.4,0,0.9,0,1.4c-0.3,1-0.7,2.1-1.2,3.1L357,69.5l-0.1-1.4c1.1-0.1,2.2,0,3.1-0.3l0.1-0.3
			c-1-2.6-2.1-5-3.1-7.5l-0.2-0.1h-10.3c-1,2-2,4.1-2.7,6.3c0,0.6-0.4,1.3,0.2,1.7c1.2,0.3,2.5,0.2,3.9,0.2c0,0.6,0,0.9,0,1.3
			l-10.2,0.1v-1.4c1.1-0.2,2.6,0.3,3-1.1l5.5-11l6.7-13.1c1.2-0.4,2.5-0.5,3.8-0.8C356.8,42,357,42,357.3,42.2L357.3,42.2z"/>
		<path class="st1" d="M202.3,47.7c-1.7-2.8-8.6-3.2-8.6-2.9l0.2,10.9c3.2,0.1,6.7,0,8.6-2.7C203.4,51.4,203.2,49.3,202.3,47.7
			L202.3,47.7z M198.8,42.6c3.9,0.2,7.8,1.3,9.8,4.9c1,2,0.6,4.5-0.7,6.2c-1.5,1.9-3.7,2.2-5.7,2.8c3,3.7,5.7,7.5,9.4,10.7
			c0.7,0.6,1.7,0.6,2.6,0.7c0,0.4,0,1-0.1,1.4l-7.2-0.1l-1.2-0.3c-2.8-2.7-4.9-5.9-7-8.9l-1.9-2.8h-2.9c0,0-0.1,5.3,0.1,8.5
			c0.2,0.7,0.1,1.7,1,2c0.9,0.2,2.1,0.1,3.2,0.1c0.2,0.4,0,1.4,0,1.4h-13.2c-0.2-0.4-0.1-1-0.1-1.4c0.9-0.1,2.1,0.1,2.8-0.2l0.2-0.5
			c0.1-1.2-0.1-17.5-0.1-17.5c-0.1-1.6,0-3.4-0.4-4.9c-0.6-1-1.9-0.7-3-0.8h-0.8c0-0.4,0-0.9,0-1.4L198.8,42.6L198.8,42.6z"/>
		<path class="st1" d="M302.9,49.1c-2.9-3.5-7.1-4.7-11.7-4.6c-0.5,0.1-1.4-0.2-1.5,0.5l0.1,18.1c0.1,1.4,0.1,2.7,0.5,4
			c0.2,0.3,0.5,0.5,0.9,0.6c3.7,0.1,7.1-0.6,10.1-2.4c2.8-1.7,4.2-4.6,4.3-7.7C305.7,54.3,304.8,51.5,302.9,49.1L302.9,49.1z
			 M299.6,43.1c4.6,0.6,9.3,3.1,11.5,7.6c1.2,2.9,1.4,6.5,0.2,9.5c-1.2,3.7-5.1,7.1-8.8,8.1c-3.1,1-6.6,1.2-10.3,1.1L281,69.3
			c0-0.4,0-1.3,0-1.3c1-0.1,2.5,0.4,2.9-0.7l-0.1-17.4c-0.2-1.7,0.1-3.4-0.4-5c-0.3-0.9-1.3-0.6-2-0.8h-1.8c0-0.7,0-0.7,0-1.4
			l15.6,0L299.6,43.1L299.6,43.1z"/>
		<path class="st1" d="M406.9,42.9c0,0.6,0,0.9,0,1.4c-1,0-1.9-0.1-2.7,0.2l-0.2,0.3l0,16.7c0,1.8,0.1,3.6,0.3,5.3
			c0.1,0.3,0.3,0.7,0.7,0.9l0.5,0.1c3.4,0,7,0.1,10.2-0.6c1.2-0.4,2.5-0.8,3.3-2c0.3-0.2,0.6-0.3,1-0.1c0.3,0.6-0.1,1.3-0.2,1.9
			l-0.9,2.4l-0.2,0.1l-23.5-0.1c0-0.4,0-0.9,0-1.4c0.9-0.1,2,0.1,2.7-0.2c0.3-0.4,0.1-1,0.2-1.4l-0.1-16.5c-0.2-1.8,0.2-3.8-0.6-5.3
			c-0.6-0.5-1.4-0.3-2.2-0.4c-0.5-0.1-1.3,0.1-1.3-0.1c0-0.4,0-0.9,0-1.4L406.9,42.9L406.9,42.9z"/>
		<path class="st1" d="M441.7,43l2.3,0c-0.1,1.3-0.3,2.5-0.6,3.8c-0.1,0.2-0.2,0.5-0.5,0.5c-0.3,0-0.7,0-0.8-0.3
			c-0.1-0.4-0.2-0.8-0.5-1c-3-1.4-6.6-1.2-10.2-1.3c-0.7,0.1-1.7-0.2-2.1,0.4l0.1,9.3l0.2,0.1c3.1-0.1,6.3,0.2,9.2-0.4
			c0.8-0.3,0.5-1.2,0.6-1.9c0.1-0.3-0.1-0.5,0.1-0.9c0.5,0,0.9-0.1,1.5,0v7.4c-0.6,0.1-1.6,0-1.6,0c-0.1-0.5,0.1-1.4-0.2-1.9
			c-0.7-0.5-1.7-0.4-2.6-0.6c-2.4,0-4.8-0.1-7.2-0.1l-0.1,0.1c0.1,3.6-0.2,7.4,0.3,10.7c0.1,0.4,0.3,0.8,0.7,1
			c1.7,0.2,3.7,0.1,5.4,0.1c2.7-0.2,5.5-0.3,7.7-1.6c0.6-0.4,1-1.5,1.9-1.2c0.4,0.5,0,1.1,0,1.6l-1,2.8l-0.5,0.1l-23.3-0.1l0-1.4
			c0.9-0.2,2,0.1,2.8-0.3l0.2-0.4l0-17.9c-0.1-1.2,0-3.2-0.4-4.6c-0.1-0.2-0.4-0.5-0.6-0.6c-1-0.2-2.1,0-3.1-0.1
			c-0.2-0.4-0.1-0.9-0.1-1.4l0.2-0.1l3.6,0L441.7,43L441.7,43z"/>
		<path class="st1" d="M457.2,43l0,1.4c-1.1,0-2-0.1-2.9,0.1c0.1,1,0.7,1.4,1,2.1l5.7,8.6l0.6,0.7l0.2-0.1c2.2-3.4,4.5-6.8,6.1-10.4
			c0.1-0.2,0.2-0.6,0.1-0.8l-0.3-0.2l-3.3-0.1c0-0.6,0-1.4,0-1.4l9.3,0.1c0,0.6,0.1,0.9,0,1.4c-1.1,0-2.4-0.2-3,1L463.3,57l-0.7,1.1
			l0,7.5c0.3,0.8-0.1,2.2,1,2.6c1,0.2,2.2,0.1,3.1,0.1c0,0.5,0,1,0,1.4l-13.1-0.1c0-0.3,0-1.3,0-1.3c1-0.1,2.9,0.6,3-0.9l-0.1-9
			c-2.8-4.1-5.4-8.3-8.3-12.4c-0.5-0.6-1-1.2-1.6-1.5l-2.4-0.1c0-0.5,0-1.4,0-1.4L457.2,43L457.2,43z"/>
		<path class="st1" d="M163.6,76.3c0.1,1.4,0.4,2.8,0.2,4.1c-0.3,0.2-0.8,0.3-1.1,0.1c-0.5-0.7-0.6-1.7-1.6-2.1
			c-1.6-0.8-3.3-1.2-5.2-1.1c-2.8,0.1-5.7,0.9-6.9,3.7c-0.3,1.2-0.1,2.6,0.8,3.5c1.5,1.6,3.6,2,5.4,2.8c4.2,1.6,10.3,2.3,11.3,7.8
			c0.6,3.1-1,5.9-3.4,7.8c-5.2,3.8-13.2,3.1-19.2,1.5c-0.4-1.4-0.7-2.9-1-4.3c0.1-0.3,0.1-0.6,0.4-0.7c0.4,0,1-0.1,1.2,0.4
			c1.1,2.7,4.1,3.3,6.6,3.8c2.3,0.4,4.7,0,6.8-0.7c1.9-0.8,3.7-2.6,3.6-4.8c0-1.9-1.5-3.6-3.3-4.2c-4.3-2.1-9.5-2.1-13-5.8
			c-1.5-1.8-1.9-4.4-1.1-6.6c1.1-3.2,4.7-4.6,7.5-5.5C155.5,75,160.1,75.2,163.6,76.3L163.6,76.3z"/>
		<path class="st1" d="M266.2,77.3c0.1,0.4,0.1,1.1,0,1.5c-1,0.2-2-0.1-3,0.2l-0.2,0.3v16.2c0.1,2.9,0.7,5.9,3.3,7.7
			c2.4,1.6,5.7,1.7,8.7,1.2c2.5-0.6,5.2-1.8,6.4-4.4c0.6-1.1,0.8-2.4,1-3.6l-0.1-12.3c-0.2-1.4-0.1-3.1-0.6-4.6
			c-0.3-0.5-0.8-0.6-1.2-0.6l-2.7-0.1c-0.1-0.5-0.1-1.1,0-1.5l10.1,0c0.1,0.4,0.1,1,0.1,1.4l-0.1,0.1c-1,0.1-2-0.1-2.9,0.2l-0.1,0.2
			l0,17.5c-0.3,3-1.9,5.8-4.7,7.6l-2,1.1c-3.5,1.4-7.5,1.6-11.4,1.1c-3.8-0.6-8.1-2.2-9.5-6.2c-0.5-1.3-0.5-2.7-0.6-4.2l0-12.7
			c-0.1-1.4,0-2.9-0.6-4.2l-0.5-0.3c-1-0.2-2.2-0.1-3.3-0.1l-0.1-0.1v-1.4l0.1-0.1L266.2,77.3L266.2,77.3z"/>
		<path class="st1" d="M193.3,89.1c-1.4,2.3-2.6,4.7-3.8,7.2v0.2c2.2,0,4.6,0.1,6.8,0C195.4,93.9,194.4,91.5,193.3,89.1L193.3,89.1z
			 M197.6,84.1c0.2,0.7-1,0.8-0.7,1.5l0.9,2.5l5.9,13.4c0.5,1,0.9,2.3,2,2.8l1.7,0.1c0,0.3,0,0.7,0,1.1c-3.4,0-6.9,0.1-10.1,0
			c0-0.4,0-0.8,0-1.2c0.8,0,1.6,0.1,2.3-0.2l-0.1-0.6l-2.3-5.5l-0.2-0.1h-8.2l-0.2,0.3c-0.8,1.8-1.8,3.6-2.1,5.6
			c0.1,0.7,0.9,0.5,1.3,0.6l2,0.1c0,0.4,0,0.7,0,1.1c-2.7,0.1-5.5,0.1-8.2,0c0-0.4-0.1-0.8,0-1.1c0.8-0.2,1.9,0.3,2.3-0.7l4.3-8.5
			l4.9-9.5l0.7-1.4c1-0.3,2.1-0.4,3.1-0.6C197.2,83.8,197.5,83.8,197.6,84.1L197.6,84.1z"/>
		<path class="st1" d="M414,84.8c0.2,0.9,0.2,1.8,0.3,2.8c-0.1,0.2-0.2,0.5-0.5,0.5c-1,0.1-0.7-1.3-1.6-1.5c-2.1-1.3-5.2-1.2-7.3,0
			c-0.9,0.6-1.7,1.5-1.6,2.7c0.3,2.6,3.3,3,5.2,3.8c3,1,7,2,7.7,5.7c0.5,2.6-1,4.8-3.1,6.2c-3.8,2.4-9.3,1.8-13.5,0.7
			c-0.4-1-0.5-2.2-0.8-3.3c0-0.3,0.2-0.4,0.4-0.5c0.9-0.3,0.9,0.8,1.3,1.2c2.1,2,5.2,2.4,8.1,1.8c1.5-0.4,3.4-1.4,3.8-3.2
			c0.2-0.9,0-1.8-0.5-2.5c-1.1-1.3-2.7-1.6-4.1-2.2c-3-1.2-7.5-1.7-8.2-5.6c-0.4-1.8,0.3-3.7,1.7-4.9
			C404.8,83.9,409.8,83.7,414,84.8L414,84.8z"/>
		<path class="st1" d="M178.1,84.3c2,0.1,4.1-0.1,6.1,0.1l1.3,3.2c-0.1,0.2-0.2,0.4-0.4,0.4c-1,0.1-1-1.1-1.8-1.4
			c-2.1-0.9-4.5-1-7-1l-0.1,0.1l0,16.5c0.2,0.7,0.1,1.7,0.9,1.9c1,0.1,2.2,0.1,3.3,0.1c0.1,0.4,0,0.8,0,1.2l-12.6,0
			c0-0.4,0-0.8,0-1.2c1.2-0.1,2.3,0.1,3.4-0.2l0.1-0.3V86l-0.1-0.2c-2.2-0.1-4.8,0-6.8,0.8c-1,0.2-1.1,1.9-2.3,1.4
			c-0.2-0.2-0.2-0.6,0-0.8l1-2.8c0.5-0.1,1.1,0,1.6-0.1L178.1,84.3L178.1,84.3z"/>
		<path class="st1" d="M224.8,84.5c0.5,1.1,0.9,2.2,1.3,3.3c-0.1,0.2-0.3,0.3-0.5,0.4c-0.8,0.1-0.8-0.9-1.4-1.2
			c-1-0.7-2.1-0.8-3.3-1c-1.3-0.2-2.6-0.1-3.9-0.2l-0.1,0.1l0,16.8c0.3,0.5,0,1.3,0.6,1.6c1.1,0.1,2.3,0.1,3.5,0.1
			c0,0.5,0,0.7,0,1.1l-12.5,0l0-1.1c1.2-0.1,2.4,0.1,3.5-0.2l0.2-0.5l0-17.7c0-0.2-0.3-0.2-0.4-0.2c-2.4,0.1-4.9,0.1-6.9,1.2
			c-0.7,0.4-0.8,1.5-1.8,1.1c-0.3-0.2-0.1-0.6,0-0.8l1-2.6c0.4-0.3,1-0.1,1.4-0.2l18.1,0L224.8,84.5L224.8,84.5z"/>
		<path class="st1" d="M246.6,84.5c-0.1,1-0.2,2-0.4,3c-0.1,0.2-0.2,0.4-0.5,0.4c-0.2,0-0.6-0.1-0.6-0.3c-0.1-1-1.2-0.9-1.9-1.3
			c-2.7-0.4-5.2-0.6-8.1-0.4l-0.2,0.4l0,7l0.2,0.1c2.5-0.1,5.2,0.2,7.5-0.4c0.5-0.5,0.3-1.3,0.4-1.9c0-0.1,0.1-0.1,0.2-0.1l1,0.1
			c0.2,2.1,0,3.7,0,5.7c-0.4,0.1-0.8,0.1-1.2,0c-0.2-0.6,0.3-1.7-0.7-1.8c-2.3-0.3-4.8-0.3-7.3-0.2l-0.1,0.1c0,2.6-0.2,5.9,0.2,8.6
			c0.1,0.3,0.2,0.6,0.5,0.7c3.5,0.1,7.3,0.3,10.3-1.1c0.5-0.3,0.9-1.2,1.6-1c0.3,0.4,0,0.8-0.1,1.3l-0.8,2.2l-0.1,0.1l-18.8,0
			c0-0.4,0-0.8,0-1.1c0.9-0.1,1.9,0.3,2.3-0.4l0-2.8V90.1c-0.1-1.4,0.1-2.9-0.4-4.1l-0.3-0.3c-0.8-0.1-1.7-0.1-2.5-0.1
			c0-0.3-0.1-0.8,0.1-1.1l17.4,0L246.6,84.5L246.6,84.5z"/>
		<path class="st1" d="M293.3,84.6l8.3,7.7l7.5,7l0.1-0.2c0.1-3.4-0.1-7.2-0.1-10.1c-0.2-1,0.1-2.3-0.6-3.1
			c-0.8-0.3-1.8-0.2-2.6-0.3c-0.1-0.3-0.2-0.9,0-1.1c2.5-0.1,4.8,0.1,7.3,0c0.2,0.3,0.1,0.8,0.1,1.1c-0.7,0.1-1.4,0.1-2.1,0.2
			l-0.2,0.2l0,19.8c-0.1,0.2-0.4,0.2-0.6,0.2l-0.5-0.3l-11.1-10.4l-7-6.4h-0.1c-0.1,6-0.2,9.1,0.3,14.7c0.1,0.3,0.3,0.6,0.6,0.8
			c0.7,0.2,1.6,0.1,2.4,0.1c0,0.5,0,0.8,0,1.2c-2.6,0-5,0-7.5,0c0-0.4,0-0.8,0-1.2c0.9,0,1.5,0.1,2.1-0.2l0.1-0.3l-0.1-15.2
			c0-1-0.4-2-1.3-2.7c-0.6-0.3-1.4-0.3-2.2-0.4c-0.2-0.2-0.1-0.8-0.1-1.1l0.3-0.1C288.9,84.5,290.9,84.5,293.3,84.6L293.3,84.6z"/>
		<path class="st1" d="M324,84.6c0.2,0.3,0.1,0.8,0.1,1.1c-0.8,0.3-2-0.3-2.3,0.5l0,15.1c0,1,0.1,1.9,0.3,2.8c0.5,0.7,2.8,0.4,3,0.6
			c0,0.4,0,0.8,0,1.1l-10.3-0.1c0-0.3,0-0.8,0-1.2c0.7-0.1,1.7,0.2,2.2-0.3l0-1.3l0-14.2c-0.1-1-0.1-2-0.5-2.7
			c-0.8-0.5-1.8-0.2-2.7-0.3c-0.1-0.3,0-0.7-0.1-1.1l0.1-0.1L324,84.6L324,84.6z"/>
		<path class="st1" d="M334.9,84.7c0.1,0.3,0.1,0.9-0.1,1.1c-0.7,0-1.4-0.1-2,0.1c-0.2,0.1-0.1,0.3-0.1,0.5l7.1,13.6l0.1,0.1
			l0.2-0.2l5.2-10.5c0.4-1,0.8-1.9,1-3c0-0.2-0.3-0.3-0.4-0.4c-0.8-0.1-1.7,0-2.5-0.1c-0.1-0.3-0.2-0.9,0.1-1.2l7.5,0
			c0.2,0.4,0,0.6,0.1,1.1c-0.6,0.2-1.4-0.1-2.1,0.2l-0.9,1.7l-9.2,18.6c-0.2,0.2-0.5,0.3-0.8,0.2l-0.4-0.5l-8.6-17
			c-0.8-1.2-1.3-3.3-3.2-3.2c-0.3-0.1-1,0.1-0.9-0.3c0-0.3-0.1-0.7,0.1-0.9C328.3,84.7,331.7,84.6,334.9,84.7L334.9,84.7z"/>
		<path class="st1" d="M372.1,84.8c-0.1,1.1-0.3,2.1-0.5,3.2c-0.1,0.3-0.5,0.3-0.7,0.2c-0.4-0.3-0.3-1.1-1-1.2c-2.7-1-6-0.8-9.1-0.8
			c-0.2,0-0.2,0.2-0.3,0.3l0,7l0.2,0.1c2.5-0.1,5,0.2,7.3-0.3c0.7-0.4,0.4-1.3,0.5-2.1c0.4-0.1,1-0.1,1.3,0.1V97
			c-0.4,0.1-0.9,0.1-1.2,0c-0.2-0.4,0.2-1.4-0.4-1.7c-1.8-0.6-4-0.2-5.9-0.4l-1.7,0.1l-0.1,0.3c0.1,2.2-0.1,5.7,0.3,8.5
			c0.2,0.9,1.2,0.6,1.9,0.7c2.8,0,5.6,0,8-0.8c1-0.1,1.3-1.5,2.3-1.3c0.3,0.4,0,0.8,0,1.2l-0.8,2.3l-0.3,0.1l-18.5-0.1
			c0-0.4,0-0.7,0-1.1c0.8-0.2,2.2,0.4,2.3-0.7l-0.1-16.2c-0.3-0.6,0-1.5-0.8-1.8c-0.8-0.2-1.6-0.1-2.4-0.1c-0.2-0.3-0.1-0.8-0.1-1.1
			l0.3-0.1L372.1,84.8L372.1,84.8z"/>
		<path class="st1" d="M388.4,88.8c-1.3-2.2-3.8-2.8-6.3-2.7c-0.1,0.1-0.3,0.1-0.3,0.2c0,3.1-0.1,5.7,0,8.6c2.4,0,5.1,0.2,6.6-1.9
			C389.2,91.9,389,90.1,388.4,88.8L388.4,88.8z M387.8,85c2.5,0.5,5.3,2,5.9,4.8c0.3,1.8-0.5,3.5-1.9,4.6c-1.1,0.7-2.3,1-3.5,1.3
			l0.1,0.3c2.1,2.5,3.9,5.3,6.3,7.6c0.8,0.8,1.7,1.2,2.8,1.2c0.2,0.3,0.1,0.8,0.1,1.1c-1.9,0.1-3.9,0.1-5.8,0
			c-1.1-0.1-1.8-1.3-2.5-2c-1.9-2.4-3.5-5.1-5.3-7.6c-0.7,0-1.5-0.1-2.2,0c-0.1,2.1-0.1,4.3,0,6.4c0.1,0.7,0,1.6,0.8,1.9
			c0.8,0.1,1.7,0,2.5,0.1c0,0.5,0,0.7,0,1.1l-10.4,0c0-0.3-0.1-0.8-0.1-1.1c0.6-0.2,1.6,0.1,2.2-0.2l0.1-0.7l-0.1-15.5
			c-0.2-0.6,0.1-1.9-0.8-2.3c-0.7-0.2-1.6,0-2.4-0.1c-0.2-0.3-0.1-0.8-0.1-1.1l0.2-0.1C378.5,84.9,383.3,84.4,387.8,85L387.8,85z"/>
		<path class="st1" d="M426.5,84.8c0.1,0.3,0.1,0.7,0.1,1.1c-0.7,0.3-2-0.3-2.3,0.6l0,14.9c0,0.9,0.1,2.2,0.5,3.2
			c0.8,0.4,1.9,0.2,2.8,0.3l0,1.1l-0.1,0.1l-10.3,0c0-0.4,0-0.7,0-1.2c0.8-0.2,1.8,0.3,2.3-0.4l0.1-1.6l-0.1-12.8
			c0-1.2,0-2.4-0.3-3.5c-0.7-0.9-2-0.5-3-0.6c-0.1-0.4-0.1-0.8,0-1.2L426.5,84.8L426.5,84.8z"/>
		<path class="st1" d="M449,84.9L449,84.9c0.5,1.1,1,2.1,1.4,3.2c0,0.2-0.1,0.4-0.3,0.5c-0.9,0.2-0.9-0.7-1.5-1.1
			c-0.9-0.7-2-0.8-3.1-1c-1.4-0.2-2.8-0.3-4.2-0.2l-0.1,0.1l0.1,16.4c0.3,0.6,0,1.7,0.8,2c1,0.1,2.2,0,3.3,0.1c0,0.4,0,0.7,0,1.1
			l-12.4,0c-0.1-0.3-0.1-0.8,0-1.2c1.1-0.1,2.3,0.1,3.4-0.1c0.3-0.5,0.2-1,0.2-1.5l-0.1-16.9l-0.1-0.1c-2.4,0-4.7,0.1-6.8,0.9
			c-1,0.2-1.2,2.1-2.3,1.2c0.1-1.2,0.7-2.2,1.1-3.4c0.4-0.2,1,0,1.5-0.1l11.1,0.1L449,84.9L449,84.9z"/>
		<path class="st1" d="M461.1,85c0,0.3,0.1,0.8-0.1,1.1l-2.1,0.1c-0.2,0.2,0.1,0.4,0.1,0.6c1.8,2.8,3.7,5.6,5.6,8.3h0.1
			c1.8-2.6,3.5-5.2,4.9-8c0-0.3,0.3-0.6-0.1-0.8c-0.8-0.2-1.8,0-2.7-0.1c-0.1-0.3-0.1-0.7-0.1-1.1l0.2-0.1c2.6-0.1,4.8,0,7.4,0.1
			c0,0.4,0.1,0.8-0.1,1.2c-0.6-0.1-1.2,0-1.8,0.2l-1,1.3l-6.1,9.2l0,6.1c0.2,0.7,0,1.7,0.8,2c0.8,0.1,1.6,0.1,2.3,0.1
			c0,0.6,0,0.8,0,1.1l-10.3,0c0-0.4,0-0.7,0-1.1c0.7-0.1,1.5,0.1,2.2-0.2l0.1-0.3l0-7.4l-6.6-9.6c-0.4-0.4-0.8-1.1-1.4-1.2
			c-0.6-0.1-1.2,0-1.8-0.1c-0.1-0.4-0.1-0.7-0.1-1.1l0.2-0.1L461.1,85L461.1,85z"/>
		<g>
			<path class="st1" d="M473,110.3c-1.5,0-2.8-1.2-2.8-2.8c0-1.5,1.2-2.8,2.8-2.8c1.5,0,2.8,1.2,2.8,2.8
				C475.8,109.1,474.6,110.3,473,110.3z M473,105.2c-1.3,0-2.3,1-2.3,2.3c0,1.3,1,2.3,2.3,2.3c1.3,0,2.3-1,2.3-2.3
				C475.4,106.3,474.3,105.2,473,105.2z M471.8,106.1h1.3c0.7,0,1,0.5,1,0.8c0,0.5-0.3,0.8-0.9,0.9v0c0.3,0.1,0.4,0.3,0.7,0.7
				l0.4,0.6h-0.6l-0.3-0.5c-0.4-0.7-0.5-0.8-0.9-0.8h-0.3v1.3h-0.5V106.1z M473,107.4c0.4,0,0.6-0.1,0.6-0.5c0-0.3-0.2-0.4-0.5-0.4
				h-0.8v0.9H473z"/>
		</g>
	</g>
	<g>
		<g>
			<polygon class="st2" points="245.2,123.3 243.5,123.3 240.6,130.2 237.7,123.3 235.3,123.3 240.3,134.9 241,134.9 244.4,127 
				247.7,134.9 248.4,134.9 253.5,123.3 251,123.3 248.1,130.2 			"/>
			<polygon class="st2" points="263.4,123.3 261.7,123.3 258.8,130.2 255.9,123.3 253.5,123.3 258.5,134.9 259.2,134.9 262.6,127 
				265.9,134.9 266.6,134.9 271.6,123.3 269.2,123.3 266.3,130.2 			"/>
			<polygon class="st2" points="281.6,123.3 279.9,123.3 277,130.2 274,123.3 271.6,123.3 276.7,134.9 277.4,134.9 280.8,127 
				284.1,134.9 284.8,134.9 289.8,123.3 287.4,123.3 284.5,130.2 			"/>
			<path class="st2" d="M290.9,131.9c-0.8,0-1.5,0.7-1.5,1.5c0,0.8,0.7,1.5,1.5,1.5c0.8,0,1.5-0.7,1.5-1.5
				C292.4,132.6,291.7,131.9,290.9,131.9z"/>
			<path class="st2" d="M304.5,123.3h-4.7c-3.1,0-5,1.5-5,3.9c0,0.8,0.2,1.5,0.6,2.1c0.4,0.6,1.1,1.1,1.9,1.4v0.1
				c-1.1,0.3-1.8,0.9-1.8,1.6c0,0.5,0.4,1,1.1,1.4c-2,0.5-2.9,1.5-2.9,3.1c0,2,2.2,3.4,5.2,3.4c3.4,0,5.4-1.4,5.4-3.6
				c0-1.4-0.9-2.7-3.3-3.2c-2.3-0.5-3.5-0.8-3.5-1.5c0-1.3,3.1-0.5,4.6-2.2c0.5-0.5,1.1-1.6,1.1-2.6c0-1-0.3-1.6-1.2-2.5h2.3V123.3z
				 M301.3,127.3c0,1.2-0.9,2.1-2.2,2.1c-1.4,0-2.3-0.8-2.3-2.1c0-1.1,1-2,2.3-2C300.3,125.3,301.3,126.2,301.3,127.3z M302.3,137.1
				c0,1-1.2,1.6-3.1,1.6c-2,0-3.2-0.6-3.2-1.7c0-1,1.1-1.7,2.6-1.7C300,135.2,302.3,135.6,302.3,137.1z"/>
			<polygon class="st2" points="310.3,134.9 311,134.9 316.1,123.3 313.6,123.3 310.7,130.3 307.6,123.3 305.1,123.3 			"/>
			<path class="st2" d="M324.4,124c-1.2-0.6-2.3-0.9-3.3-0.9c-2.3,0-3.7,1.2-3.7,3.1c0,3.1,5.3,3.9,5.3,5.5c0,0.8-0.8,1.2-1.7,1.3
				c-0.9,0-2.3-0.5-3.7-1.5v2.4c1.5,0.8,2.6,1,3.9,1c2.2,0,3.7-1.3,3.7-3.3c0-1.2-0.7-1.9-2.6-3.2c-2-1.2-2.8-1.8-2.8-2.3
				c0-0.6,0.6-1,1.5-1c0.8,0,2,0.4,3.3,1.2V124z"/>
			<path class="st2" d="M336.3,134.7v-11.4h-2.3v8.1c-0.7,1-1.7,1.6-2.7,1.6c-1.5,0-2.3-0.9-2.3-2.5v-7.2h-2.3v7.1
				c0,2.9,1.6,4.5,3.9,4.5c1.1,0,2.4-0.7,3.4-1.7v1.4H336.3z"/>
			<path class="st2" d="M340.7,131.9c-0.8,0-1.5,0.7-1.5,1.5c0,0.8,0.7,1.5,1.5,1.5c0.8,0,1.5-0.7,1.5-1.5
				C342.2,132.6,341.5,131.9,340.7,131.9z"/>
			<path class="st2" d="M354,131.4c-1.3,0.9-2.6,1.4-4,1.4c-2.2,0-3.5-1.2-3.8-3.4h8c0-4.2-1.9-6.3-4.9-6.3c-3.1,0-5.3,2.3-5.3,5.8
				c0,3.1,2,6,5.5,6c1.9,0,3.2-0.4,4.5-1.3V131.4z M346.3,127.9c0.3-1.8,1.3-2.8,3.1-2.8c1.6,0,2.6,1.1,2.7,2.8H346.3z"/>
			<path class="st2" d="M366.4,117.4h-2.3v6.1c-0.9-0.3-1.6-0.5-2.4-0.5c-3.3,0-5.7,2.4-5.7,5.6c0,3.6,2.1,5.9,5.5,5.9h4.8V117.4z
				 M364.1,132.8h-2.3c-2.6,0-3.5-1.6-3.5-3.7c0-2.4,1.5-3.9,3.6-3.9c0.8,0,1.3,0.1,2.1,0.4V132.8z"/>
			<path class="st2" d="M378.5,134.7v-11.4h-2.3v8.1c-0.7,1-1.7,1.6-2.7,1.6c-1.5,0-2.3-0.9-2.3-2.5v-7.2h-2.3v7.1
				c0,2.9,1.6,4.5,3.9,4.5c1.1,0,2.4-0.7,3.4-1.7v1.4H378.5z"/>
		</g>
	</g>
</g>
</svg>
